<?xml version="1.0" encoding="UTF-8"?><svg xmlns="http://www.w3.org/2000/svg" xmlns:xlink="http://www.w3.org/1999/xlink" stroke-dasharray="none" shape-rendering="auto" font-family="'Dialog'" width="877" text-rendering="auto" fill-opacity="1" contentScriptType="text/ecmascript" color-interpolation="auto" color-rendering="auto" preserveAspectRatio="xMidYMid meet" font-size="12" viewBox="0 0 877 1020" fill="black" stroke="black" image-rendering="auto" stroke-miterlimit="10" zoomAndPan="magnify" version="1.0" stroke-linecap="square" stroke-linejoin="miter" contentStyleType="text/css" font-style="normal" height="1020" stroke-width="1" stroke-dashoffset="0" font-weight="normal" stroke-opacity="1">
    <!--Generated by the Batik Graphics2D SVG Generator-->
    <defs id="genericDefs"/>
    <g>
        <defs id="defs1">
            <linearGradient x1="10" x2="10" y1="10" gradientUnits="userSpaceOnUse" y2="767" xlink:type="simple" xlink:actuate="onLoad" id="linearGradient1" xlink:show="other" spreadMethod="pad">
                <stop stop-opacity="1" stop-color="white" offset="0%"/>
                <stop stop-opacity="1" stop-color="white" offset="100%"/>
            </linearGradient>
            <linearGradient x1="370" x2="370" y1="44" gradientUnits="userSpaceOnUse" y2="744" xlink:type="simple" xlink:actuate="onLoad" id="linearGradient2" xlink:show="other" spreadMethod="pad">
                <stop stop-opacity="1" stop-color="white" offset="0%"/>
                <stop stop-opacity="1" stop-color="rgb(195,209,213)" offset="100%"/>
            </linearGradient>
            <linearGradient x1="410" x2="410" y1="130" gradientUnits="userSpaceOnUse" y2="510" xlink:type="simple" xlink:actuate="onLoad" id="linearGradient3" xlink:show="other" spreadMethod="pad">
                <stop stop-opacity="1" stop-color="white" offset="0%"/>
                <stop stop-opacity="1" stop-color="rgb(195,209,213)" offset="100%"/>
            </linearGradient>
            <linearGradient x1="420" x2="420" y1="338" gradientUnits="userSpaceOnUse" y2="438" xlink:type="simple" xlink:actuate="onLoad" id="linearGradient4" xlink:show="other" spreadMethod="pad">
                <stop stop-opacity="1" stop-color="white" offset="0%"/>
                <stop stop-opacity="1" stop-color="rgb(195,209,213)" offset="100%"/>
            </linearGradient>
            <linearGradient x1="110" x2="110" y1="44" gradientUnits="userSpaceOnUse" y2="744" xlink:type="simple" xlink:actuate="onLoad" id="linearGradient5" xlink:show="other" spreadMethod="pad">
                <stop stop-opacity="1" stop-color="white" offset="0%"/>
                <stop stop-opacity="1" stop-color="rgb(195,209,213)" offset="100%"/>
            </linearGradient>
            <linearGradient x1="610" x2="610" y1="44" gradientUnits="userSpaceOnUse" y2="744" xlink:type="simple" xlink:actuate="onLoad" id="linearGradient6" xlink:show="other" spreadMethod="pad">
                <stop stop-opacity="1" stop-color="white" offset="0%"/>
                <stop stop-opacity="1" stop-color="rgb(195,209,213)" offset="100%"/>
            </linearGradient>
            <linearGradient x1="650" x2="650" y1="98" gradientUnits="userSpaceOnUse" y2="519" xlink:type="simple" xlink:actuate="onLoad" id="linearGradient7" xlink:show="other" spreadMethod="pad">
                <stop stop-opacity="1" stop-color="white" offset="0%"/>
                <stop stop-opacity="1" stop-color="rgb(195,209,213)" offset="100%"/>
            </linearGradient>
            <clipPath clipPathUnits="userSpaceOnUse" id="clipPath1">
                <path d="M10 10 L10 766 L866 766 L866 10 Z"/>
            </clipPath>
            <clipPath clipPathUnits="userSpaceOnUse" id="clipPath2">
                <path d="M7 7 L870 7 L870 770 L7 770 L7 7 Z"/>
            </clipPath>
            <clipPath clipPathUnits="userSpaceOnUse" id="clipPath3">
                <path d="M15 12 L62 12 L62 29 L15 29 L15 12 Z"/>
            </clipPath>
            <clipPath clipPathUnits="userSpaceOnUse" id="clipPath4">
                <path d="M369 43 L471 43 L471 745 L369 745 L369 43 Z"/>
            </clipPath>
            <clipPath clipPathUnits="userSpaceOnUse" id="clipPath5">
                <path d="M370 44 L370 743 L469 743 L469 44 Z"/>
            </clipPath>
            <clipPath clipPathUnits="userSpaceOnUse" id="clipPath6">
                <path d="M383 46 L459 46 L459 63 L383 63 L383 46 Z"/>
            </clipPath>
            <clipPath clipPathUnits="userSpaceOnUse" id="clipPath7">
                <path d="M410 130 L410 509 L429 509 L429 130 Z"/>
            </clipPath>
            <clipPath clipPathUnits="userSpaceOnUse" id="clipPath8">
                <path d="M409 129 L431 129 L431 511 L409 511 L409 129 Z"/>
            </clipPath>
            <clipPath clipPathUnits="userSpaceOnUse" id="clipPath9">
                <path d="M420 338 L420 437 L439 437 L439 338 Z"/>
            </clipPath>
            <clipPath clipPathUnits="userSpaceOnUse" id="clipPath10">
                <path d="M419 337 L441 337 L441 439 L419 439 L419 337 Z"/>
            </clipPath>
            <clipPath clipPathUnits="userSpaceOnUse" id="clipPath11">
                <path d="M109 43 L211 43 L211 745 L109 745 L109 43 Z"/>
            </clipPath>
            <clipPath clipPathUnits="userSpaceOnUse" id="clipPath12">
                <path d="M110 44 L110 743 L209 743 L209 44 Z"/>
            </clipPath>
            <clipPath clipPathUnits="userSpaceOnUse" id="clipPath13">
                <path d="M148 46 L174 46 L174 63 L148 63 L148 46 Z"/>
            </clipPath>
            <clipPath clipPathUnits="userSpaceOnUse" id="clipPath14">
                <path d="M609 43 L711 43 L711 745 L609 745 L609 43 Z"/>
            </clipPath>
            <clipPath clipPathUnits="userSpaceOnUse" id="clipPath15">
                <path d="M610 44 L610 743 L709 743 L709 44 Z"/>
            </clipPath>
            <clipPath clipPathUnits="userSpaceOnUse" id="clipPath16">
                <path d="M636 46 L686 46 L686 63 L636 63 L636 46 Z"/>
            </clipPath>
            <clipPath clipPathUnits="userSpaceOnUse" id="clipPath17">
                <path d="M650 98 L650 518 L669 518 L669 98 Z"/>
            </clipPath>
            <clipPath clipPathUnits="userSpaceOnUse" id="clipPath18">
                <path d="M649 97 L671 97 L671 520 L649 520 L649 97 Z"/>
            </clipPath>
            <clipPath clipPathUnits="userSpaceOnUse" id="clipPath19">
                <path d="M9 9 L868 9 L868 768 L9 768 L9 9 Z"/>
            </clipPath>
            <clipPath clipPathUnits="userSpaceOnUse" id="clipPath20">
                <path d="M-1 -1 L878 -1 L878 1021 L-1 1021 L-1 -1 Z"/>
            </clipPath>
            <clipPath clipPathUnits="userSpaceOnUse" id="clipPath21">
                <path d="M517 175 L561 175 L561 192 L517 192 L517 175 Z"/>
            </clipPath>
            <clipPath clipPathUnits="userSpaceOnUse" id="clipPath22">
                <path d="M429 163 L448 163 L448 178 L429 178 L429 163 Z"/>
            </clipPath>
            <clipPath clipPathUnits="userSpaceOnUse" id="clipPath23">
                <path d="M487 69 L596 69 L596 86 L487 86 L487 69 Z"/>
            </clipPath>
            <clipPath clipPathUnits="userSpaceOnUse" id="clipPath24">
                <path d="M643 83 L662 83 L662 98 L643 98 L643 83 Z"/>
            </clipPath>
            <clipPath clipPathUnits="userSpaceOnUse" id="clipPath25">
                <path d="M241 69 L341 69 L341 86 L241 86 L241 69 Z"/>
            </clipPath>
            <clipPath clipPathUnits="userSpaceOnUse" id="clipPath26">
                <path d="M403 83 L422 83 L422 98 L403 98 L403 83 Z"/>
            </clipPath>
        </defs>
        <g fill="url(#linearGradient1)" font-family="'Segoe UI'" stroke-linejoin="round" stroke="url(#linearGradient1)" stroke-width="0" stroke-miterlimit="0">
            <rect x="10" y="10" clip-path="url(#clipPath1)" width="857" height="757" stroke="none"/>
        </g>
        <g stroke-width="0.1" font-family="'Segoe UI'" stroke-linecap="butt">
            <line clip-path="url(#clipPath2)" fill="none" x1="75" x2="75" y1="10" y2="22"/>
            <line clip-path="url(#clipPath2)" fill="none" x1="75" x2="75" y1="22" y2="22"/>
            <line clip-path="url(#clipPath2)" fill="none" x1="75" x2="69" y1="22" y2="28"/>
            <line clip-path="url(#clipPath2)" fill="none" x1="69" x2="69" y1="28" y2="28"/>
            <line clip-path="url(#clipPath2)" fill="none" x1="69" x2="10" y1="28" y2="28"/>
            <text xml:space="preserve" x="16" y="26" clip-path="url(#clipPath3)" stroke="none">SignUp  </text>
            <rect x="370" y="44" clip-path="url(#clipPath4)" fill="none" width="99" height="18" stroke-width="1.1"/>
            <line clip-path="url(#clipPath4)" fill="none" x1="420" x2="420" y1="62" y2="743" stroke-dasharray="5,5" stroke-width="1.1"/>
        </g>
        <g stroke-linecap="butt" fill="url(#linearGradient2)" font-family="'Segoe UI'" stroke-dasharray="5,5" stroke="url(#linearGradient2)" stroke-width="1.1">
            <rect x="370" y="44" clip-path="url(#clipPath5)" width="100" opacity="0" height="700" stroke="none"/>
            <text x="384" y="60" clip-path="url(#clipPath6)" fill="black" stroke="none" xml:space="preserve">Authenticator</text>
            <rect x="410" y="130" clip-path="url(#clipPath7)" fill="url(#linearGradient3)" width="20" height="380" stroke="none"/>
            <rect x="410" y="130" clip-path="url(#clipPath8)" fill="none" width="19" stroke-dasharray="none" rx="0" ry="0" height="379" stroke="black"/>
            <rect x="420" y="338" clip-path="url(#clipPath9)" fill="url(#linearGradient4)" width="20" stroke-dasharray="none" height="100" stroke="none"/>
            <rect x="420" y="338" clip-path="url(#clipPath10)" fill="none" width="19" stroke-dasharray="none" rx="0" ry="0" height="99" stroke="black"/>
            <rect x="110" y="44" clip-path="url(#clipPath11)" fill="none" width="99" stroke-dasharray="none" height="18" stroke="black"/>
            <line clip-path="url(#clipPath11)" fill="none" x1="160" x2="160" y1="62" y2="743" stroke="black"/>
            <rect x="110" y="44" clip-path="url(#clipPath12)" fill="url(#linearGradient5)" width="100" opacity="0" height="700" stroke="none"/>
            <text x="149" y="60" clip-path="url(#clipPath13)" fill="black" stroke="none" xml:space="preserve">User</text>
            <rect x="610" y="44" clip-path="url(#clipPath14)" fill="none" width="99" stroke-dasharray="none" height="18" stroke="black"/>
            <line clip-path="url(#clipPath14)" fill="none" x1="660" x2="660" y1="62" y2="743" stroke="black"/>
            <rect x="610" y="44" clip-path="url(#clipPath15)" fill="url(#linearGradient6)" width="100" opacity="0" height="700" stroke="none"/>
            <text x="637" y="60" clip-path="url(#clipPath16)" fill="black" stroke="none" xml:space="preserve">UserData</text>
            <rect x="650" y="98" clip-path="url(#clipPath17)" fill="url(#linearGradient7)" width="20" height="421" stroke="none"/>
            <rect x="650" y="98" clip-path="url(#clipPath18)" fill="none" width="19" stroke-dasharray="none" rx="0" ry="0" height="420" stroke="black"/>
            <rect x="10" y="10" clip-path="url(#clipPath19)" fill="none" width="856" stroke-dasharray="none" rx="0" ry="0" height="756" stroke="black"/>
        </g>
        <g text-rendering="optimizeLegibility" stroke-width="1.1" stroke-dasharray="6.6,3.3" font-family="'Segoe UI'" stroke-linecap="butt">
            <line clip-path="url(#clipPath20)" fill="none" x1="650" x2="430" y1="170" y2="170"/>
            <text xml:space="preserve" x="518" y="189" clip-path="url(#clipPath21)" stroke="none">Created</text>
            <line clip-path="url(#clipPath22)" fill="none" x1="446" x2="430" y1="164" y2="170" stroke-dasharray="none"/>
            <line clip-path="url(#clipPath22)" fill="none" x1="430" x2="446" y1="170" y2="176" stroke-dasharray="none"/>
            <line clip-path="url(#clipPath20)" fill="none" x1="420" x2="660" y1="90" y2="90" stroke-dasharray="none"/>
            <text x="488" y="83" clip-path="url(#clipPath23)" stroke-dasharray="none" stroke="none" xml:space="preserve">NewUser(name, pw)</text>
            <polygon stroke-dasharray="none" clip-path="url(#clipPath24)" points=" 660 90 644 96 644 84" stroke="none"/>
            <polygon fill="none" stroke-dasharray="none" clip-path="url(#clipPath24)" points=" 660 90 644 96 644 84"/>
            <line clip-path="url(#clipPath20)" fill="none" x1="160" x2="420" y1="90" y2="90" stroke-dasharray="none"/>
            <text x="242" y="83" clip-path="url(#clipPath25)" stroke-dasharray="none" stroke="none" xml:space="preserve">SignUp(name, pw)</text>
            <polygon stroke-dasharray="none" clip-path="url(#clipPath26)" points=" 420 90 404 96 404 84" stroke="none"/>
            <polygon fill="none" stroke-dasharray="none" clip-path="url(#clipPath26)" points=" 420 90 404 96 404 84"/>
            <line clip-path="url(#clipPath20)" fill="none" x1="160" x2="420" y1="90" y2="90" stroke-dasharray="none"/>
            <text x="242" y="83" clip-path="url(#clipPath25)" stroke-dasharray="none" stroke="none" xml:space="preserve">SignUp(name, pw)</text>
            <polygon stroke-dasharray="none" clip-path="url(#clipPath26)" points=" 420 90 404 96 404 84" stroke="none"/>
            <polygon fill="none" stroke-dasharray="none" clip-path="url(#clipPath26)" points=" 420 90 404 96 404 84"/>
            <line clip-path="url(#clipPath20)" fill="none" x1="420" x2="660" y1="90" y2="90" stroke-dasharray="none"/>
            <text x="488" y="83" clip-path="url(#clipPath23)" stroke-dasharray="none" stroke="none" xml:space="preserve">NewUser(name, pw)</text>
            <polygon stroke-dasharray="none" clip-path="url(#clipPath24)" points=" 660 90 644 96 644 84" stroke="none"/>
            <polygon fill="none" stroke-dasharray="none" clip-path="url(#clipPath24)" points=" 660 90 644 96 644 84"/>
            <line clip-path="url(#clipPath20)" fill="none" x1="650" x2="430" y1="170" y2="170"/>
            <text xml:space="preserve" x="518" y="189" clip-path="url(#clipPath21)" stroke="none">Created</text>
            <line clip-path="url(#clipPath22)" fill="none" x1="446" x2="430" y1="164" y2="170" stroke-dasharray="none"/>
            <line clip-path="url(#clipPath22)" fill="none" x1="430" x2="446" y1="170" y2="176" stroke-dasharray="none"/>
        </g>
    </g>
</svg>
