<?xml version="1.0" encoding="UTF-8" standalone="no"?><svg xmlns="http://www.w3.org/2000/svg" xmlns:xlink="http://www.w3.org/1999/xlink" height="388" version="1.1" width="651"><defs/><g><g transform="translate(-22,-30) scale(1,1)"><rect fill="#C0C0C0" height="39" opacity="0.2" stroke="none" width="82.31787109375" x="143" y="47"/></g><g transform="translate(-22,-30) scale(1,1)"><rect fill="#ffffff" height="39" stroke="none" width="82.31787109375" x="136" y="40"/></g><g transform="translate(-22,-30) scale(1,1)"><path d="M 136 40 L 218.31787109375 40 L 218.31787109375 79 L 136 79 L 136 40 Z Z" fill="none" stroke="#000000" stroke-miterlimit="10"/></g><g transform="translate(-22,-30) scale(1,1)"><g><path fill="none" stroke="none"/><text fill="#000000" font-family="Arial" font-size="13px" font-style="normal" font-weight="bold" stroke="none" text-decoration="none" x="147.293212890625" y="59.5">WebClient</text></g></g><g transform="translate(-22,-30) scale(1,1)"><path d="M 178.5 80 L 178.5 406" fill="none" stroke="#000000" stroke-dasharray="3" stroke-miterlimit="10"/></g><g transform="translate(-22,-30) scale(1,1)"><rect fill="#C0C0C0" height="39" opacity="0.2" stroke="none" width="103.5" x="327" y="47"/></g><g transform="translate(-22,-30) scale(1,1)"><rect fill="#ffffff" height="39" stroke="none" width="103.5" x="320" y="40"/></g><g transform="translate(-22,-30) scale(1,1)"><path d="M 320 40 L 423.5 40 L 423.5 79 L 320 79 L 320 40 Z Z" fill="none" stroke="#000000" stroke-miterlimit="10"/></g><g transform="translate(-22,-30) scale(1,1)"><g><path fill="none" stroke="none"/><text fill="#000000" font-family="Arial" font-size="13px" font-style="normal" font-weight="bold" stroke="none" text-decoration="none" x="333.4482421875" y="59.5">Authenticator</text></g></g><g transform="translate(-22,-30) scale(1,1)"><path d="M 372.5 80 L 372.5 406" fill="none" stroke="#000000" stroke-dasharray="3" stroke-miterlimit="10"/></g><g transform="translate(-22,-30) scale(1,1)"><rect fill="#C0C0C0" height="39" opacity="0.2" stroke="none" width="76.08447265625" x="559" y="47"/></g><g transform="translate(-22,-30) scale(1,1)"><rect fill="#ffffff" height="39" stroke="none" width="76.08447265625" x="552" y="40"/></g><g transform="translate(-22,-30) scale(1,1)"><path d="M 552 40 L 628.08447265625 40 L 628.08447265625 79 L 552 79 L 552 40 Z Z" fill="none" stroke="#000000" stroke-miterlimit="10"/></g><g transform="translate(-22,-30) scale(1,1)"><g><path fill="none" stroke="none"/><text fill="#000000" font-family="Arial" font-size="13px" font-style="normal" font-weight="bold" stroke="none" text-decoration="none" x="562.588623046875" y="59.5">UserData</text></g></g><g transform="translate(-22,-30) scale(1,1)"><path d="M 591.5 80 L 591.5 408" fill="none" stroke="#000000" stroke-dasharray="3" stroke-miterlimit="10"/></g><g transform="translate(-22,-30) scale(1,1)"><path d="M 178 109 L 365 109" fill="none" stroke="#000000" stroke-miterlimit="10"/></g><g transform="translate(-22,-30) scale(1,1)"><path d="M 354.83732514237585 113.20951775601598 L 365 109 L 354.83732514237585 104.79048224398402" fill="#000000" stroke="none"/></g><g transform="translate(-22,-30) scale(1,1)"><path d="M 354.83732514237585 113.20951775601598 L 365 109 L 354.83732514237585 104.79048224398402 L 354.83732514237585 113.20951775601598" fill="none" stroke="#000000" stroke-miterlimit="10"/></g><g transform="translate(-22,-30) scale(1,1)"><g><path fill="none" stroke="none"/><text fill="#000000" font-family="Arial" font-size="13px" font-style="normal" font-weight="normal" stroke="none" text-decoration="none" x="211.5" y="105.5">1 : SignIn(name, pw)</text></g></g><g transform="translate(-22,-30) scale(1,1)"><rect fill="#ffffff" height="283" stroke="none" width="13" x="365" y="109"/></g><g transform="translate(-22,-30) scale(1,1)"><path d="M 365 109 L 378 109 L 378 392 L 365 392 L 365 109 Z Z" fill="none" stroke="#000000" stroke-miterlimit="10"/></g><g transform="translate(-22,-30) scale(1,1)"><path d="M 378 129 L 584 129" fill="none" stroke="#000000" stroke-miterlimit="10"/></g><g transform="translate(-22,-30) scale(1,1)"><path d="M 573.8373251423759 133.209517756016 L 584 129 L 573.8373251423758 124.79048224398402" fill="#000000" stroke="none"/></g><g transform="translate(-22,-30) scale(1,1)"><path d="M 573.8373251423759 133.209517756016 L 584 129 L 573.8373251423758 124.79048224398402 L 573.8373251423759 133.209517756016" fill="none" stroke="#000000" stroke-miterlimit="10"/></g><g transform="translate(-22,-30) scale(1,1)"><g><path fill="none" stroke="none"/><text fill="#000000" font-family="Arial" font-size="13px" font-style="normal" font-weight="normal" stroke="none" text-decoration="none" x="423.5" y="125.5">2 : Verify(name, pw)</text></g></g><g transform="translate(-22,-30) scale(1,1)"><rect fill="#ffffff" height="263" stroke="none" width="13" x="584" y="129"/></g><g transform="translate(-22,-30) scale(1,1)"><path d="M 584 129 L 597 129 L 597 392 L 584 392 L 584 129 Z Z" fill="none" stroke="#000000" stroke-miterlimit="10"/></g><g transform="translate(-22,-30) scale(1,1)"><path d="M 584 168 L 378 168" fill="none" stroke="#000000" stroke-dasharray="3" stroke-miterlimit="10"/></g><g transform="translate(-22,-30) scale(1,1)"><path d="M 388.16267485762415 163.790482243984 L 378 168 L 388.16267485762415 172.209517756016" fill="none" stroke="#000000" stroke-miterlimit="10"/></g><g transform="translate(-22,-30) scale(1,1)"><g><path fill="none" stroke="none"/><text fill="#000000" font-family="Arial" font-size="13px" font-style="normal" font-weight="normal" stroke="none" text-decoration="none" x="461.5" y="184.5">3 : OK</text></g></g><g transform="translate(-22,-30) scale(1,1)"><path d="M 378 184 L 408 184 L 408 204 L 385 204" fill="none" stroke="#000000" stroke-miterlimit="10"/></g><g transform="translate(-22,-30) scale(1,1)"><path d="M 395.16267485762415 199.790482243984 L 385 204 L 395.16267485762415 208.209517756016" fill="#000000" stroke="none"/></g><g transform="translate(-22,-30) scale(1,1)"><path d="M 395.16267485762415 199.790482243984 L 385 204 L 395.16267485762415 208.209517756016 L 395.16267485762415 199.790482243984" fill="none" stroke="#000000" stroke-miterlimit="10"/></g><g transform="translate(-22,-30) scale(1,1)"><g><path fill="none" stroke="none"/><text fill="#000000" font-family="Arial" font-size="13px" font-style="normal" font-weight="normal" stroke="none" text-decoration="none" x="331.5" y="199.5">4 : session = CreateSession()</text></g></g><g transform="translate(-22,-30) scale(1,1)"><rect fill="#ffffff" height="28" stroke="none" width="13" x="372" y="204"/></g><g transform="translate(-22,-30) scale(1,1)"><path d="M 372 204 L 385 204 L 385 232 L 372 232 L 372 204 Z Z" fill="none" stroke="#000000" stroke-miterlimit="10"/></g><g transform="translate(-22,-30) scale(1,1)"><path d="M 365 248 L 178 248" fill="none" stroke="#000000" stroke-dasharray="3" stroke-miterlimit="10"/></g><g transform="translate(-22,-30) scale(1,1)"><path d="M 188.16267485762415 243.790482243984 L 178 248 L 188.16267485762415 252.209517756016" fill="none" stroke="#000000" stroke-miterlimit="10"/></g><g transform="translate(-22,-30) scale(1,1)"><g><path fill="none" stroke="none"/><text fill="#000000" font-family="Arial" font-size="13px" font-style="normal" font-weight="normal" stroke="none" text-decoration="none" x="207.5" y="264.5">5 : OK(session.token)</text></g></g><g transform="translate(-22,-30) scale(1,1)"><path d="M 584 310 L 378 310" fill="none" stroke="#000000" stroke-dasharray="3" stroke-miterlimit="10"/></g><g transform="translate(-22,-30) scale(1,1)"><path d="M 388.16267485762415 305.790482243984 L 378 310 L 388.16267485762415 314.209517756016" fill="none" stroke="#000000" stroke-miterlimit="10"/></g><g transform="translate(-22,-30) scale(1,1)"><g><path fill="none" stroke="none"/><text fill="#000000" font-family="Arial" font-size="13px" font-style="normal" font-weight="normal" stroke="none" text-decoration="none" x="456.5" y="326.5">6 : NOK</text></g></g><g transform="translate(-22,-30) scale(1,1)"><path d="M 365 329 L 178 329" fill="none" stroke="#000000" stroke-dasharray="3" stroke-miterlimit="10"/></g><g transform="translate(-22,-30) scale(1,1)"><path d="M 188.16267485762415 324.790482243984 L 178 329 L 188.16267485762415 333.209517756016" fill="none" stroke="#000000" stroke-miterlimit="10"/></g><g transform="translate(-22,-30) scale(1,1)"><g><path fill="none" stroke="none"/><text fill="#000000" font-family="Arial" font-size="13px" font-style="normal" font-weight="normal" stroke="none" text-decoration="none" x="246.5" y="345.5">7 : NOK</text></g></g><g transform="translate(-22,-30) scale(1,1)"><path d="M 32 144 L 663 144 L 663 368 L 32 368 L 32 144" fill="none" stroke="#000000" stroke-miterlimit="10"/></g><g transform="translate(-22,-30) scale(1,1)"><path d="M 32 144 L 32 166 L 65.341796875 166 L 76.341796875 155 L 76.341796875 144 L 32 144" fill="#ffffff" stroke="none"/></g><g transform="translate(-22,-30) scale(1,1)"><path d="M 32 144 L 32 166 L 65.341796875 166 L 76.341796875 155 L 76.341796875 144 L 32 144 L 32 144" fill="none" stroke="#000000" stroke-miterlimit="10"/></g><g transform="translate(-22,-30) scale(1,1)"><g><path fill="none" stroke="none"/><text fill="#000000" font-family="Arial" font-size="13px" font-style="normal" font-weight="normal" stroke="none" text-decoration="none" x="56.72998046875" y="161.5"> </text></g></g><g transform="translate(-22,-30) scale(1,1)"><g><path fill="none" stroke="none"/><text fill="#000000" font-family="Arial" font-size="13px" font-style="normal" font-weight="bold" stroke="none" text-decoration="none" x="37" y="161.5">alt</text></g></g><g transform="translate(-22,-30) scale(1,1)"><g><path fill="none" stroke="none"/><text fill="#000000" font-family="Arial" font-size="13px" font-style="normal" font-weight="normal" stroke="none" text-decoration="none" x="51.5" y="194.5">[valid credentials]</text></g></g><g transform="translate(-22,-30) scale(1,1)"><path d="M 32 289 L 663 289" fill="none" stroke="#000000" stroke-dasharray="10,3" stroke-miterlimit="10"/></g><g transform="translate(-22,-30) scale(1,1)"><g><path fill="none" stroke="none"/><text fill="#000000" font-family="Arial" font-size="13px" font-style="normal" font-weight="normal" stroke="none" text-decoration="none" x="51.5" y="316.5">[invalid credentials]</text></g></g></g></svg>