<?xml version="1.0" encoding="UTF-8" standalone="no"?><svg xmlns="http://www.w3.org/2000/svg" xmlns:xlink="http://www.w3.org/1999/xlink" height="492" version="1.1" width="780"><defs/><g><g transform="translate(-62,-30) scale(1,1)"><rect fill="#C0C0C0" height="39" opacity="0.2" stroke="none" width="71.736328125" x="151" y="47"/></g><g transform="translate(-62,-30) scale(1,1)"><rect fill="#ffffff" height="39" stroke="none" width="71.736328125" x="144" y="40"/></g><g transform="translate(-62,-30) scale(1,1)"><path d="M 144 40 L 215.736328125 40 L 215.736328125 79 L 144 79 L 144 40 Z Z" fill="none" stroke="#000000" stroke-miterlimit="10"/></g><g transform="translate(-62,-30) scale(1,1)"><g><path fill="none" stroke="none"/><text fill="#000000" font-family="Arial" font-size="13px" font-style="normal" font-weight="bold" stroke="none" text-decoration="none" x="166.14453125" y="59.5">User</text></g></g><g transform="translate(-62,-30) scale(1,1)"><path d="M 180.5 80 L 180.5 495" fill="none" stroke="#000000" stroke-dasharray="3" stroke-miterlimit="10"/></g><g transform="translate(-62,-30) scale(1,1)"><rect fill="#C0C0C0" height="39" opacity="0.2" stroke="none" width="103.5" x="567" y="47"/></g><g transform="translate(-62,-30) scale(1,1)"><rect fill="#ffffff" height="39" stroke="none" width="103.5" x="560" y="40"/></g><g transform="translate(-62,-30) scale(1,1)"><path d="M 560 40 L 663.5 40 L 663.5 79 L 560 79 L 560 40 Z Z" fill="none" stroke="#000000" stroke-miterlimit="10"/></g><g transform="translate(-62,-30) scale(1,1)"><g><path fill="none" stroke="none"/><text fill="#000000" font-family="Arial" font-size="13px" font-style="normal" font-weight="bold" stroke="none" text-decoration="none" x="573.4482421875" y="59.5">Authenticator</text></g></g><g transform="translate(-62,-30) scale(1,1)"><path d="M 612.5 80 L 612.5 440" fill="none" stroke="#000000" stroke-dasharray="3" stroke-miterlimit="10"/></g><g transform="translate(-62,-30) scale(1,1)"><rect fill="#C0C0C0" height="39" opacity="0.2" stroke="none" width="71.736328125" x="359" y="47"/></g><g transform="translate(-62,-30) scale(1,1)"><rect fill="#ffffff" height="39" stroke="none" width="71.736328125" x="352" y="40"/></g><g transform="translate(-62,-30) scale(1,1)"><path d="M 352 40 L 423.736328125 40 L 423.736328125 79 L 352 79 L 352 40 Z Z" fill="none" stroke="#000000" stroke-miterlimit="10"/></g><g transform="translate(-62,-30) scale(1,1)"><g><path fill="none" stroke="none"/><text fill="#000000" font-family="Arial" font-size="13px" font-style="normal" font-weight="bold" stroke="none" text-decoration="none" x="363.05517578125" y="59.5">WebApp</text></g></g><g transform="translate(-62,-30) scale(1,1)"><path d="M 388.5 80 L 388.5 495" fill="none" stroke="#000000" stroke-dasharray="3" stroke-miterlimit="10"/></g><g transform="translate(-62,-30) scale(1,1)"><rect fill="#C0C0C0" height="39" opacity="0.2" stroke="none" width="72.45361328125" x="759" y="47"/></g><g transform="translate(-62,-30) scale(1,1)"><rect fill="#ffffff" height="39" stroke="none" width="72.45361328125" x="752" y="40"/></g><g transform="translate(-62,-30) scale(1,1)"><path d="M 752 40 L 824.45361328125 40 L 824.45361328125 79 L 752 79 L 752 40 Z Z" fill="none" stroke="#000000" stroke-miterlimit="10"/></g><g transform="translate(-62,-30) scale(1,1)"><g><path fill="none" stroke="none"/><text fill="#000000" font-family="Arial" font-size="13px" font-style="normal" font-weight="bold" stroke="none" text-decoration="none" x="762.693359375" y="59.5">CaffData</text></g></g><g transform="translate(-62,-30) scale(1,1)"><path d="M 789.5 80 L 789.5 470" fill="none" stroke="#000000" stroke-dasharray="3" stroke-miterlimit="10"/></g><g transform="translate(-62,-30) scale(1,1)"><path d="M 180 112 L 381 112" fill="none" stroke="#000000" stroke-miterlimit="10"/></g><g transform="translate(-62,-30) scale(1,1)"><path d="M 370.83732514237585 116.20951775601598 L 381 112 L 370.83732514237585 107.79048224398402" fill="#000000" stroke="none"/></g><g transform="translate(-62,-30) scale(1,1)"><path d="M 370.83732514237585 116.20951775601598 L 381 112 L 370.83732514237585 107.79048224398402 L 370.83732514237585 116.20951775601598" fill="none" stroke="#000000" stroke-miterlimit="10"/></g><g transform="translate(-62,-30) scale(1,1)"><g><path fill="none" stroke="none"/><text fill="#000000" font-family="Arial" font-size="13px" font-style="normal" font-weight="normal" stroke="none" text-decoration="none" x="194.485595703125" y="108.5">1 : Comment(token, caff, text)</text></g></g><g transform="translate(-62,-30) scale(1,1)"><rect fill="#ffffff" height="360" stroke="none" width="13" x="381" y="112"/></g><g transform="translate(-62,-30) scale(1,1)"><path d="M 381 112 L 394 112 L 394 472 L 381 472 L 381 112 Z Z" fill="none" stroke="#000000" stroke-miterlimit="10"/></g><g transform="translate(-62,-30) scale(1,1)"><path d="M 394 135 L 605 135" fill="none" stroke="#000000" stroke-miterlimit="10"/></g><g transform="translate(-62,-30) scale(1,1)"><path d="M 594.8373251423759 139.209517756016 L 605 135 L 594.8373251423758 130.790482243984" fill="#000000" stroke="none"/></g><g transform="translate(-62,-30) scale(1,1)"><path d="M 594.8373251423759 139.209517756016 L 605 135 L 594.8373251423758 130.790482243984 L 594.8373251423759 139.209517756016" fill="none" stroke="#000000" stroke-miterlimit="10"/></g><g transform="translate(-62,-30) scale(1,1)"><g><path fill="none" stroke="none"/><text fill="#000000" font-family="Arial" font-size="13px" font-style="normal" font-weight="normal" stroke="none" text-decoration="none" x="446.75" y="131.5">2 : Session(token)</text></g></g><g transform="translate(-62,-30) scale(1,1)"><rect fill="#ffffff" height="161" stroke="none" width="13" x="605" y="135"/></g><g transform="translate(-62,-30) scale(1,1)"><path d="M 605 135 L 618 135 L 618 296 L 605 296 L 605 135 Z Z" fill="none" stroke="#000000" stroke-miterlimit="10"/></g><g transform="translate(-62,-30) scale(1,1)"><path d="M 605 192 L 394 192" fill="none" stroke="#000000" stroke-dasharray="3" stroke-miterlimit="10"/></g><g transform="translate(-62,-30) scale(1,1)"><path d="M 404.16267485762415 187.790482243984 L 394 192 L 404.16267485762415 196.209517756016" fill="none" stroke="#000000" stroke-miterlimit="10"/></g><g transform="translate(-62,-30) scale(1,1)"><g><path fill="none" stroke="none"/><text fill="#000000" font-family="Arial" font-size="13px" font-style="normal" font-weight="normal" stroke="none" text-decoration="none" x="451.5" y="208.5">3 : invalid_token</text></g></g><g transform="translate(-62,-30) scale(1,1)"><path d="M 381 216 L 180 216" fill="none" stroke="#000000" stroke-dasharray="3" stroke-miterlimit="10"/></g><g transform="translate(-62,-30) scale(1,1)"><path d="M 190.16267485762415 211.790482243984 L 180 216 L 190.16267485762415 220.209517756016" fill="none" stroke="#000000" stroke-miterlimit="10"/></g><g transform="translate(-62,-30) scale(1,1)"><g><path fill="none" stroke="none"/><text fill="#000000" font-family="Arial" font-size="13px" font-style="normal" font-weight="normal" stroke="none" text-decoration="none" x="232.5" y="232.5">4 : invalid_token</text></g></g><g transform="translate(-62,-30) scale(1,1)"><path d="M 605 274 L 394 274" fill="none" stroke="#000000" stroke-dasharray="3" stroke-miterlimit="10"/></g><g transform="translate(-62,-30) scale(1,1)"><path d="M 404.16267485762415 269.790482243984 L 394 274 L 404.16267485762415 278.209517756016" fill="none" stroke="#000000" stroke-miterlimit="10"/></g><g transform="translate(-62,-30) scale(1,1)"><g><path fill="none" stroke="none"/><text fill="#000000" font-family="Arial" font-size="13px" font-style="normal" font-weight="normal" stroke="none" text-decoration="none" x="466.5" y="290.5">5 : session</text></g></g><g transform="translate(-62,-30) scale(1,1)"><path d="M 394 328 L 782 328" fill="none" stroke="#000000" stroke-miterlimit="10"/></g><g transform="translate(-62,-30) scale(1,1)"><path d="M 771.8373251423759 332.209517756016 L 782 328 L 771.8373251423758 323.790482243984" fill="#000000" stroke="none"/></g><g transform="translate(-62,-30) scale(1,1)"><path d="M 771.8373251423759 332.209517756016 L 782 328 L 771.8373251423758 323.790482243984 L 771.8373251423759 332.209517756016" fill="none" stroke="#000000" stroke-miterlimit="10"/></g><g transform="translate(-62,-30) scale(1,1)"><g><path fill="none" stroke="none"/><text fill="#000000" font-family="Arial" font-size="13px" font-style="normal" font-weight="normal" stroke="none" text-decoration="none" x="502.37060546875" y="324.5">6 : CreateComment(caff, text)</text></g></g><g transform="translate(-62,-30) scale(1,1)"><rect fill="#ffffff" height="120" stroke="none" width="13" x="782" y="328"/></g><g transform="translate(-62,-30) scale(1,1)"><path d="M 782 328 L 795 328 L 795 448 L 782 448 L 782 328 Z Z" fill="none" stroke="#000000" stroke-miterlimit="10"/></g><g transform="translate(-62,-30) scale(1,1)"><path d="M 782 368 L 394 368" fill="none" stroke="#000000" stroke-dasharray="3" stroke-miterlimit="10"/></g><g transform="translate(-62,-30) scale(1,1)"><path d="M 404.16267485762415 363.790482243984 L 394 368 L 404.16267485762415 372.209517756016" fill="none" stroke="#000000" stroke-miterlimit="10"/></g><g transform="translate(-62,-30) scale(1,1)"><g><path fill="none" stroke="none"/><text fill="#000000" font-family="Arial" font-size="13px" font-style="normal" font-weight="normal" stroke="none" text-decoration="none" x="577.632568359375" y="384.5">7 : </text></g></g><g transform="translate(-62,-30) scale(1,1)"><path d="M 381 384 L 180 384" fill="none" stroke="#000000" stroke-dasharray="3" stroke-miterlimit="10"/></g><g transform="translate(-62,-30) scale(1,1)"><path d="M 190.16267485762415 379.790482243984 L 180 384 L 190.16267485762415 388.209517756016" fill="none" stroke="#000000" stroke-miterlimit="10"/></g><g transform="translate(-62,-30) scale(1,1)"><g><path fill="none" stroke="none"/><text fill="#000000" font-family="Arial" font-size="13px" font-style="normal" font-weight="normal" stroke="none" text-decoration="none" x="270.114990234375" y="400.5">8 : </text></g></g><g transform="translate(-62,-30) scale(1,1)"><path d="M 782 440 L 394 440" fill="none" stroke="#000000" stroke-dasharray="3" stroke-miterlimit="10"/></g><g transform="translate(-62,-30) scale(1,1)"><path d="M 404.16267485762415 435.790482243984 L 394 440 L 404.16267485762415 444.209517756016" fill="none" stroke="#000000" stroke-miterlimit="10"/></g><g transform="translate(-62,-30) scale(1,1)"><g><path fill="none" stroke="none"/><text fill="#000000" font-family="Arial" font-size="13px" font-style="normal" font-weight="normal" stroke="none" text-decoration="none" x="550.5" y="456.5">9 : not found</text></g></g><g transform="translate(-62,-30) scale(1,1)"><path d="M 381 465 L 180 465" fill="none" stroke="#000000" stroke-dasharray="3" stroke-miterlimit="10"/></g><g transform="translate(-62,-30) scale(1,1)"><path d="M 190.16267485762415 460.790482243984 L 180 465 L 190.16267485762415 469.209517756016" fill="none" stroke="#000000" stroke-miterlimit="10"/></g><g transform="translate(-62,-30) scale(1,1)"><g><path fill="none" stroke="none"/><text fill="#000000" font-family="Arial" font-size="13px" font-style="normal" font-weight="normal" stroke="none" text-decoration="none" x="239.5" y="481.5">10 : not found</text></g></g><g transform="translate(-62,-30) scale(1,1)"><path d="M 72 176 L 832 176 L 832 512 L 72 512 L 72 176" fill="none" stroke="#000000" stroke-miterlimit="10"/></g><g transform="translate(-62,-30) scale(1,1)"><path d="M 72 176 L 72 198 L 105.341796875 198 L 116.341796875 187 L 116.341796875 176 L 72 176" fill="#ffffff" stroke="none"/></g><g transform="translate(-62,-30) scale(1,1)"><path d="M 72 176 L 72 198 L 105.341796875 198 L 116.341796875 187 L 116.341796875 176 L 72 176 L 72 176" fill="none" stroke="#000000" stroke-miterlimit="10"/></g><g transform="translate(-62,-30) scale(1,1)"><g><path fill="none" stroke="none"/><text fill="#000000" font-family="Arial" font-size="13px" font-style="normal" font-weight="normal" stroke="none" text-decoration="none" x="96.72998046875" y="193.5"> </text></g></g><g transform="translate(-62,-30) scale(1,1)"><g><path fill="none" stroke="none"/><text fill="#000000" font-family="Arial" font-size="13px" font-style="normal" font-weight="bold" stroke="none" text-decoration="none" x="77" y="193.5">alt</text></g></g><g transform="translate(-62,-30) scale(1,1)"><g><path fill="none" stroke="none"/><text fill="#000000" font-family="Arial" font-size="13px" font-style="normal" font-weight="normal" stroke="none" text-decoration="none" x="91.5" y="226.5">[invalid token]</text></g></g><g transform="translate(-62,-30) scale(1,1)"><path d="M 72 242 L 832 242" fill="none" stroke="#000000" stroke-dasharray="10,3" stroke-miterlimit="10"/></g><g transform="translate(-62,-30) scale(1,1)"><g><path fill="none" stroke="none"/><text fill="#000000" font-family="Arial" font-size="13px" font-style="normal" font-weight="normal" stroke="none" text-decoration="none" x="91.5" y="269.5">[valid token]</text></g></g><g transform="translate(-62,-30) scale(1,1)"><path d="M 120 352 L 824 352 L 824 496 L 120 496 L 120 352" fill="none" stroke="#000000" stroke-miterlimit="10"/></g><g transform="translate(-62,-30) scale(1,1)"><path d="M 120 352 L 120 374 L 149.72998046875 374 L 160.72998046875 363 L 160.72998046875 352 L 120 352" fill="#ffffff" stroke="none"/></g><g transform="translate(-62,-30) scale(1,1)"><path d="M 120 352 L 120 374 L 149.72998046875 374 L 160.72998046875 363 L 160.72998046875 352 L 120 352 L 120 352" fill="none" stroke="#000000" stroke-miterlimit="10"/></g><g transform="translate(-62,-30) scale(1,1)"><g><path fill="none" stroke="none"/><text fill="#000000" font-family="Arial" font-size="13px" font-style="normal" font-weight="bold" stroke="none" text-decoration="none" x="125" y="369.5">alt</text></g></g><g transform="translate(-62,-30) scale(1,1)"><g><path fill="none" stroke="none"/><text fill="#000000" font-family="Arial" font-size="13px" font-style="normal" font-weight="normal" stroke="none" text-decoration="none" x="139.5" y="402.5">[caff exists]</text></g></g><g transform="translate(-62,-30) scale(1,1)"><path d="M 120 418 L 824 418" fill="none" stroke="#000000" stroke-dasharray="10,3" stroke-miterlimit="10"/></g><g transform="translate(-62,-30) scale(1,1)"><g><path fill="none" stroke="none"/><text fill="#000000" font-family="Arial" font-size="13px" font-style="normal" font-weight="normal" stroke="none" text-decoration="none" x="139.5" y="445.5">[caff doesn't exist]</text></g></g></g></svg>