<?xml version="1.0" encoding="UTF-8" standalone="no"?><svg xmlns="http://www.w3.org/2000/svg" xmlns:xlink="http://www.w3.org/1999/xlink" height="612" version="1.1" width="1028.45361328125"><defs/><g><g transform="translate(-62,-30) scale(1,1)"><rect fill="#C0C0C0" height="39" opacity="0.2" stroke="none" width="71.736328125" x="151" y="47"/></g><g transform="translate(-62,-30) scale(1,1)"><rect fill="#ffffff" height="39" stroke="none" width="71.736328125" x="144" y="40"/></g><g transform="translate(-62,-30) scale(1,1)"><path d="M 144 40 L 215.736328125 40 L 215.736328125 79 L 144 79 L 144 40 Z Z" fill="none" stroke="#000000" stroke-miterlimit="10"/></g><g transform="translate(-62,-30) scale(1,1)"><g><path fill="none" stroke="none"/><text fill="#000000" font-family="Arial" font-size="13px" font-style="normal" font-weight="bold" stroke="none" text-decoration="none" x="166.14453125" y="59.5">User</text></g></g><g transform="translate(-62,-30) scale(1,1)"><path d="M 180.5 80 L 180.5 630" fill="none" stroke="#000000" stroke-dasharray="3" stroke-miterlimit="10"/></g><g transform="translate(-62,-30) scale(1,1)"><rect fill="#C0C0C0" height="39" opacity="0.2" stroke="none" width="110.7490234375" x="791" y="47"/></g><g transform="translate(-62,-30) scale(1,1)"><rect fill="#ffffff" height="39" stroke="none" width="110.7490234375" x="784" y="40"/></g><g transform="translate(-62,-30) scale(1,1)"><path d="M 784 40 L 894.7490234375 40 L 894.7490234375 79 L 784 79 L 784 40 Z Z" fill="none" stroke="#000000" stroke-miterlimit="10"/></g><g transform="translate(-62,-30) scale(1,1)"><g><path fill="none" stroke="none"/><text fill="#000000" font-family="Arial" font-size="13px" font-style="normal" font-weight="bold" stroke="none" text-decoration="none" x="797.470458984375" y="59.5">AccessControl</text></g></g><g transform="translate(-62,-30) scale(1,1)"><path d="M 840.5 80 L 840.5 630" fill="none" stroke="#000000" stroke-dasharray="3" stroke-miterlimit="10"/></g><g transform="translate(-62,-30) scale(1,1)"><rect fill="#C0C0C0" height="39" opacity="0.2" stroke="none" width="103.5" x="567" y="47"/></g><g transform="translate(-62,-30) scale(1,1)"><rect fill="#ffffff" height="39" stroke="none" width="103.5" x="560" y="40"/></g><g transform="translate(-62,-30) scale(1,1)"><path d="M 560 40 L 663.5 40 L 663.5 79 L 560 79 L 560 40 Z Z" fill="none" stroke="#000000" stroke-miterlimit="10"/></g><g transform="translate(-62,-30) scale(1,1)"><g><path fill="none" stroke="none"/><text fill="#000000" font-family="Arial" font-size="13px" font-style="normal" font-weight="bold" stroke="none" text-decoration="none" x="573.4482421875" y="59.5">Authenticator</text></g></g><g transform="translate(-62,-30) scale(1,1)"><path d="M 612.5 80 L 612.5 630" fill="none" stroke="#000000" stroke-dasharray="3" stroke-miterlimit="10"/></g><g transform="translate(-62,-30) scale(1,1)"><rect fill="#C0C0C0" height="39" opacity="0.2" stroke="none" width="71.736328125" x="359" y="47"/></g><g transform="translate(-62,-30) scale(1,1)"><rect fill="#ffffff" height="39" stroke="none" width="71.736328125" x="352" y="40"/></g><g transform="translate(-62,-30) scale(1,1)"><path d="M 352 40 L 423.736328125 40 L 423.736328125 79 L 352 79 L 352 40 Z Z" fill="none" stroke="#000000" stroke-miterlimit="10"/></g><g transform="translate(-62,-30) scale(1,1)"><g><path fill="none" stroke="none"/><text fill="#000000" font-family="Arial" font-size="13px" font-style="normal" font-weight="bold" stroke="none" text-decoration="none" x="363.05517578125" y="59.5">WebApp</text></g></g><g transform="translate(-62,-30) scale(1,1)"><path d="M 388.5 80 L 388.5 632" fill="none" stroke="#000000" stroke-dasharray="3" stroke-miterlimit="10"/></g><g transform="translate(-62,-30) scale(1,1)"><rect fill="#C0C0C0" height="39" opacity="0.2" stroke="none" width="72.45361328125" x="1015" y="47"/></g><g transform="translate(-62,-30) scale(1,1)"><rect fill="#ffffff" height="39" stroke="none" width="72.45361328125" x="1008" y="40"/></g><g transform="translate(-62,-30) scale(1,1)"><path d="M 1008 40 L 1080.45361328125 40 L 1080.45361328125 79 L 1008 79 L 1008 40 Z Z" fill="none" stroke="#000000" stroke-miterlimit="10"/></g><g transform="translate(-62,-30) scale(1,1)"><g><path fill="none" stroke="none"/><text fill="#000000" font-family="Arial" font-size="13px" font-style="normal" font-weight="bold" stroke="none" text-decoration="none" x="1018.693359375" y="59.5">CaffData</text></g></g><g transform="translate(-62,-30) scale(1,1)"><path d="M 1045.5 80 L 1045.5 632" fill="none" stroke="#000000" stroke-dasharray="3" stroke-miterlimit="10"/></g><g transform="translate(-62,-30) scale(1,1)"><path d="M 180 112 L 381 112" fill="none" stroke="#000000" stroke-miterlimit="10"/></g><g transform="translate(-62,-30) scale(1,1)"><path d="M 370.83732514237585 116.20951775601598 L 381 112 L 370.83732514237585 107.79048224398402" fill="#000000" stroke="none"/></g><g transform="translate(-62,-30) scale(1,1)"><path d="M 370.83732514237585 116.20951775601598 L 381 112 L 370.83732514237585 107.79048224398402 L 370.83732514237585 116.20951775601598" fill="none" stroke="#000000" stroke-miterlimit="10"/></g><g transform="translate(-62,-30) scale(1,1)"><g><path fill="none" stroke="none"/><text fill="#000000" font-family="Arial" font-size="13px" font-style="normal" font-weight="normal" stroke="none" text-decoration="none" x="201.588623046875" y="108.5">1 : Delete(token, comment)</text></g></g><g transform="translate(-62,-30) scale(1,1)"><rect fill="#ffffff" height="496" stroke="none" width="13" x="381" y="112"/></g><g transform="translate(-62,-30) scale(1,1)"><path d="M 381 112 L 394 112 L 394 608 L 381 608 L 381 112 Z Z" fill="none" stroke="#000000" stroke-miterlimit="10"/></g><g transform="translate(-62,-30) scale(1,1)"><path d="M 394 135 L 605 135" fill="none" stroke="#000000" stroke-miterlimit="10"/></g><g transform="translate(-62,-30) scale(1,1)"><path d="M 594.8373251423759 139.209517756016 L 605 135 L 594.8373251423758 130.790482243984" fill="#000000" stroke="none"/></g><g transform="translate(-62,-30) scale(1,1)"><path d="M 594.8373251423759 139.209517756016 L 605 135 L 594.8373251423758 130.790482243984 L 594.8373251423759 139.209517756016" fill="none" stroke="#000000" stroke-miterlimit="10"/></g><g transform="translate(-62,-30) scale(1,1)"><g><path fill="none" stroke="none"/><text fill="#000000" font-family="Arial" font-size="13px" font-style="normal" font-weight="normal" stroke="none" text-decoration="none" x="446.75" y="131.5">2 : Session(token)</text></g></g><g transform="translate(-62,-30) scale(1,1)"><rect fill="#ffffff" height="161" stroke="none" width="13" x="605" y="135"/></g><g transform="translate(-62,-30) scale(1,1)"><path d="M 605 135 L 618 135 L 618 296 L 605 296 L 605 135 Z Z" fill="none" stroke="#000000" stroke-miterlimit="10"/></g><g transform="translate(-62,-30) scale(1,1)"><path d="M 605 192 L 394 192" fill="none" stroke="#000000" stroke-dasharray="3" stroke-miterlimit="10"/></g><g transform="translate(-62,-30) scale(1,1)"><path d="M 404.16267485762415 187.790482243984 L 394 192 L 404.16267485762415 196.209517756016" fill="none" stroke="#000000" stroke-miterlimit="10"/></g><g transform="translate(-62,-30) scale(1,1)"><g><path fill="none" stroke="none"/><text fill="#000000" font-family="Arial" font-size="13px" font-style="normal" font-weight="normal" stroke="none" text-decoration="none" x="451.5" y="208.5">3 : invalid_token</text></g></g><g transform="translate(-62,-30) scale(1,1)"><path d="M 381 216 L 180 216" fill="none" stroke="#000000" stroke-dasharray="3" stroke-miterlimit="10"/></g><g transform="translate(-62,-30) scale(1,1)"><path d="M 190.16267485762415 211.790482243984 L 180 216 L 190.16267485762415 220.209517756016" fill="none" stroke="#000000" stroke-miterlimit="10"/></g><g transform="translate(-62,-30) scale(1,1)"><g><path fill="none" stroke="none"/><text fill="#000000" font-family="Arial" font-size="13px" font-style="normal" font-weight="normal" stroke="none" text-decoration="none" x="232.5" y="232.5">4 : invalid_token</text></g></g><g transform="translate(-62,-30) scale(1,1)"><path d="M 605 274 L 394 274" fill="none" stroke="#000000" stroke-dasharray="3" stroke-miterlimit="10"/></g><g transform="translate(-62,-30) scale(1,1)"><path d="M 404.16267485762415 269.790482243984 L 394 274 L 404.16267485762415 278.209517756016" fill="none" stroke="#000000" stroke-miterlimit="10"/></g><g transform="translate(-62,-30) scale(1,1)"><g><path fill="none" stroke="none"/><text fill="#000000" font-family="Arial" font-size="13px" font-style="normal" font-weight="normal" stroke="none" text-decoration="none" x="466.5" y="290.5">5 : session</text></g></g><g transform="translate(-62,-30) scale(1,1)"><path d="M 394 320 L 833 320" fill="none" stroke="#000000" stroke-miterlimit="10"/></g><g transform="translate(-62,-30) scale(1,1)"><path d="M 822.8373251423759 324.209517756016 L 833 320 L 822.8373251423758 315.790482243984" fill="#000000" stroke="none"/></g><g transform="translate(-62,-30) scale(1,1)"><path d="M 822.8373251423759 324.209517756016 L 833 320 L 822.8373251423758 315.790482243984 L 822.8373251423759 324.209517756016" fill="none" stroke="#000000" stroke-miterlimit="10"/></g><g transform="translate(-62,-30) scale(1,1)"><g><path fill="none" stroke="none"/><text fill="#000000" font-family="Arial" font-size="13px" font-style="normal" font-weight="normal" stroke="none" text-decoration="none" x="536.5" y="316.5">6 : authorize(session.user)</text></g></g><g transform="translate(-62,-30) scale(1,1)"><rect fill="#ffffff" height="176" stroke="none" width="13" x="833" y="320"/></g><g transform="translate(-62,-30) scale(1,1)"><path d="M 833 320 L 846 320 L 846 496 L 833 496 L 833 320 Z Z" fill="none" stroke="#000000" stroke-miterlimit="10"/></g><g transform="translate(-62,-30) scale(1,1)"><path d="M 833 362 L 394 362" fill="none" stroke="#000000" stroke-dasharray="3" stroke-miterlimit="10"/></g><g transform="translate(-62,-30) scale(1,1)"><path d="M 404.16267485762415 357.790482243984 L 394 362 L 404.16267485762415 366.209517756016" fill="none" stroke="#000000" stroke-miterlimit="10"/></g><g transform="translate(-62,-30) scale(1,1)"><g><path fill="none" stroke="none"/><text fill="#000000" font-family="Arial" font-size="13px" font-style="normal" font-weight="normal" stroke="none" text-decoration="none" x="565.5" y="378.5">7 : unauthorized</text></g></g><g transform="translate(-62,-30) scale(1,1)"><path d="M 381 398 L 180 398" fill="none" stroke="#000000" stroke-dasharray="3" stroke-miterlimit="10"/></g><g transform="translate(-62,-30) scale(1,1)"><path d="M 190.16267485762415 393.790482243984 L 180 398 L 190.16267485762415 402.209517756016" fill="none" stroke="#000000" stroke-miterlimit="10"/></g><g transform="translate(-62,-30) scale(1,1)"><g><path fill="none" stroke="none"/><text fill="#000000" font-family="Arial" font-size="13px" font-style="normal" font-weight="normal" stroke="none" text-decoration="none" x="232.5" y="414.5">8 : unauthorized</text></g></g><g transform="translate(-62,-30) scale(1,1)"><path d="M 833 485 L 394 485" fill="none" stroke="#000000" stroke-dasharray="3" stroke-miterlimit="10"/></g><g transform="translate(-62,-30) scale(1,1)"><path d="M 404.16267485762415 480.790482243984 L 394 485 L 404.16267485762415 489.209517756016" fill="none" stroke="#000000" stroke-miterlimit="10"/></g><g transform="translate(-62,-30) scale(1,1)"><g><path fill="none" stroke="none"/><text fill="#000000" font-family="Arial" font-size="13px" font-style="normal" font-weight="normal" stroke="none" text-decoration="none" x="572.5" y="501.5">9 : authorized</text></g></g><g transform="translate(-62,-30) scale(1,1)"><path d="M 394 519 L 1038 519" fill="none" stroke="#000000" stroke-miterlimit="10"/></g><g transform="translate(-62,-30) scale(1,1)"><path d="M 1027.837325142376 523.209517756016 L 1038 519 L 1027.837325142376 514.790482243984" fill="#000000" stroke="none"/></g><g transform="translate(-62,-30) scale(1,1)"><path d="M 1027.837325142376 523.209517756016 L 1038 519 L 1027.837325142376 514.790482243984 L 1027.837325142376 523.209517756016" fill="none" stroke="#000000" stroke-miterlimit="10"/></g><g transform="translate(-62,-30) scale(1,1)"><g><path fill="none" stroke="none"/><text fill="#000000" font-family="Arial" font-size="13px" font-style="normal" font-weight="normal" stroke="none" text-decoration="none" x="654" y="515.5">10 : Delete(comment)</text></g></g><g transform="translate(-62,-30) scale(1,1)"><rect fill="#ffffff" height="28" stroke="none" width="13" x="1038" y="519"/></g><g transform="translate(-62,-30) scale(1,1)"><path d="M 1038 519 L 1051 519 L 1051 547 L 1038 547 L 1038 519 Z Z" fill="none" stroke="#000000" stroke-miterlimit="10"/></g><g transform="translate(-62,-30) scale(1,1)"><path d="M 1038 536 L 394 536" fill="none" stroke="#000000" stroke-dasharray="3" stroke-miterlimit="10"/></g><g transform="translate(-62,-30) scale(1,1)"><path d="M 404.16267485762415 531.790482243984 L 394 536 L 404.16267485762415 540.209517756016" fill="none" stroke="#000000" stroke-miterlimit="10"/></g><g transform="translate(-62,-30) scale(1,1)"><g><path fill="none" stroke="none"/><text fill="#000000" font-family="Arial" font-size="13px" font-style="normal" font-weight="normal" stroke="none" text-decoration="none" x="702.5" y="552.5">11 : </text></g></g><g transform="translate(-62,-30) scale(1,1)"><path d="M 381 552 L 180 552" fill="none" stroke="#000000" stroke-dasharray="3" stroke-miterlimit="10"/></g><g transform="translate(-62,-30) scale(1,1)"><path d="M 190.16267485762415 547.790482243984 L 180 552 L 190.16267485762415 556.209517756016" fill="none" stroke="#000000" stroke-miterlimit="10"/></g><g transform="translate(-62,-30) scale(1,1)"><g><path fill="none" stroke="none"/><text fill="#000000" font-family="Arial" font-size="13px" font-style="normal" font-weight="normal" stroke="none" text-decoration="none" x="266.5" y="568.5">12 : </text></g></g><g transform="translate(-62,-30) scale(1,1)"><path d="M 72 176 L 1079 176 L 1079 600 L 72 600 L 72 176" fill="none" stroke="#000000" stroke-miterlimit="10"/></g><g transform="translate(-62,-30) scale(1,1)"><path d="M 72 176 L 72 198 L 105.341796875 198 L 116.341796875 187 L 116.341796875 176 L 72 176" fill="#ffffff" stroke="none"/></g><g transform="translate(-62,-30) scale(1,1)"><path d="M 72 176 L 72 198 L 105.341796875 198 L 116.341796875 187 L 116.341796875 176 L 72 176 L 72 176" fill="none" stroke="#000000" stroke-miterlimit="10"/></g><g transform="translate(-62,-30) scale(1,1)"><g><path fill="none" stroke="none"/><text fill="#000000" font-family="Arial" font-size="13px" font-style="normal" font-weight="normal" stroke="none" text-decoration="none" x="96.72998046875" y="193.5"> </text></g></g><g transform="translate(-62,-30) scale(1,1)"><g><path fill="none" stroke="none"/><text fill="#000000" font-family="Arial" font-size="13px" font-style="normal" font-weight="bold" stroke="none" text-decoration="none" x="77" y="193.5">alt</text></g></g><g transform="translate(-62,-30) scale(1,1)"><g><path fill="none" stroke="none"/><text fill="#000000" font-family="Arial" font-size="13px" font-style="normal" font-weight="normal" stroke="none" text-decoration="none" x="91.5" y="226.5">[invalid token]</text></g></g><g transform="translate(-62,-30) scale(1,1)"><path d="M 72 242 L 1079 242" fill="none" stroke="#000000" stroke-dasharray="10,3" stroke-miterlimit="10"/></g><g transform="translate(-62,-30) scale(1,1)"><g><path fill="none" stroke="none"/><text fill="#000000" font-family="Arial" font-size="13px" font-style="normal" font-weight="normal" stroke="none" text-decoration="none" x="91.5" y="269.5">[valid token]</text></g></g><g transform="translate(-62,-30) scale(1,1)"><path d="M 128 336 L 1063 336 L 1063 576 L 128 576 L 128 336" fill="none" stroke="#000000" stroke-miterlimit="10"/></g><g transform="translate(-62,-30) scale(1,1)"><path d="M 128 336 L 128 358 L 161.341796875 358 L 172.341796875 347 L 172.341796875 336 L 128 336" fill="#ffffff" stroke="none"/></g><g transform="translate(-62,-30) scale(1,1)"><path d="M 128 336 L 128 358 L 161.341796875 358 L 172.341796875 347 L 172.341796875 336 L 128 336 L 128 336" fill="none" stroke="#000000" stroke-miterlimit="10"/></g><g transform="translate(-62,-30) scale(1,1)"><g><path fill="none" stroke="none"/><text fill="#000000" font-family="Arial" font-size="13px" font-style="normal" font-weight="normal" stroke="none" text-decoration="none" x="152.72998046875" y="353.5"> </text></g></g><g transform="translate(-62,-30) scale(1,1)"><g><path fill="none" stroke="none"/><text fill="#000000" font-family="Arial" font-size="13px" font-style="normal" font-weight="bold" stroke="none" text-decoration="none" x="133" y="353.5">alt</text></g></g><g transform="translate(-62,-30) scale(1,1)"><g><path fill="none" stroke="none"/><text fill="#000000" font-family="Arial" font-size="13px" font-style="normal" font-weight="normal" stroke="none" text-decoration="none" x="147.5" y="386.5">[unauthorized]</text></g></g><g transform="translate(-62,-30) scale(1,1)"><path d="M 128 473 L 1063 473" fill="none" stroke="#000000" stroke-dasharray="10,3" stroke-miterlimit="10"/></g><g transform="translate(-62,-30) scale(1,1)"><g><path fill="none" stroke="none"/><text fill="#000000" font-family="Arial" font-size="13px" font-style="normal" font-weight="normal" stroke="none" text-decoration="none" x="147.5" y="500.5">[authorized]</text></g></g></g></svg>