<?xml version="1.0" encoding="UTF-8" standalone="no"?><svg xmlns="http://www.w3.org/2000/svg" xmlns:xlink="http://www.w3.org/1999/xlink" height="428" version="1.1" width="747"><defs/><g><g transform="translate(-246,-30) scale(1,1)"><rect fill="#C0C0C0" height="39" opacity="0.2" stroke="none" width="86.64697265625" x="343" y="47"/></g><g transform="translate(-246,-30) scale(1,1)"><rect fill="#ffffff" height="39" stroke="none" width="86.64697265625" x="336" y="40"/></g><g transform="translate(-246,-30) scale(1,1)"><path d="M 336 40 L 422.64697265625 40 L 422.64697265625 79 L 336 79 L 336 40 Z Z" fill="none" stroke="#000000" stroke-miterlimit="10"/></g><g transform="translate(-246,-30) scale(1,1)"><g><path fill="none" stroke="none"/><text fill="#000000" font-family="Arial" font-size="13px" font-style="normal" font-weight="bold" stroke="none" text-decoration="none" x="349.457763671875" y="59.5">WebClient</text></g></g><g transform="translate(-246,-30) scale(1,1)"><path d="M 380.5 80 L 380.5 448" fill="none" stroke="#000000" stroke-dasharray="3" stroke-miterlimit="10"/></g><g transform="translate(-246,-30) scale(1,1)"><rect fill="#C0C0C0" height="39" opacity="0.2" stroke="none" width="103.5" x="599" y="47"/></g><g transform="translate(-246,-30) scale(1,1)"><rect fill="#ffffff" height="39" stroke="none" width="103.5" x="592" y="40"/></g><g transform="translate(-246,-30) scale(1,1)"><path d="M 592 40 L 695.5 40 L 695.5 79 L 592 79 L 592 40 Z Z" fill="none" stroke="#000000" stroke-miterlimit="10"/></g><g transform="translate(-246,-30) scale(1,1)"><g><path fill="none" stroke="none"/><text fill="#000000" font-family="Arial" font-size="13px" font-style="normal" font-weight="bold" stroke="none" text-decoration="none" x="605.4482421875" y="59.5">Authenticator</text></g></g><g transform="translate(-246,-30) scale(1,1)"><path d="M 644.5 80 L 644.5 448" fill="none" stroke="#000000" stroke-dasharray="3" stroke-miterlimit="10"/></g><g transform="translate(-246,-30) scale(1,1)"><rect fill="#C0C0C0" height="39" opacity="0.2" stroke="none" width="76.08447265625" x="887" y="47"/></g><g transform="translate(-246,-30) scale(1,1)"><rect fill="#ffffff" height="39" stroke="none" width="76.08447265625" x="880" y="40"/></g><g transform="translate(-246,-30) scale(1,1)"><path d="M 880 40 L 956.08447265625 40 L 956.08447265625 79 L 880 79 L 880 40 Z Z" fill="none" stroke="#000000" stroke-miterlimit="10"/></g><g transform="translate(-246,-30) scale(1,1)"><g><path fill="none" stroke="none"/><text fill="#000000" font-family="Arial" font-size="13px" font-style="normal" font-weight="bold" stroke="none" text-decoration="none" x="890.588623046875" y="59.5">UserData</text></g></g><g transform="translate(-246,-30) scale(1,1)"><path d="M 919.5 80 L 919.5 448" fill="none" stroke="#000000" stroke-dasharray="3" stroke-miterlimit="10"/></g><g transform="translate(-246,-30) scale(1,1)"><path d="M 380 114 L 637 114" fill="none" stroke="#000000" stroke-miterlimit="10"/></g><g transform="translate(-246,-30) scale(1,1)"><path d="M 626.8373251423759 118.20951775601598 L 637 114 L 626.8373251423758 109.79048224398402" fill="#000000" stroke="none"/></g><g transform="translate(-246,-30) scale(1,1)"><path d="M 626.8373251423759 118.20951775601598 L 637 114 L 626.8373251423758 109.79048224398402 L 626.8373251423759 118.20951775601598" fill="none" stroke="#000000" stroke-miterlimit="10"/></g><g transform="translate(-246,-30) scale(1,1)"><g><path fill="none" stroke="none"/><text fill="#000000" font-family="Arial" font-size="13px" font-style="normal" font-weight="normal" stroke="none" text-decoration="none" x="445.5" y="110.5">1 : SignUp(name, pw)</text></g></g><g transform="translate(-246,-30) scale(1,1)"><rect fill="#ffffff" height="310" stroke="none" width="13" x="637" y="114"/></g><g transform="translate(-246,-30) scale(1,1)"><path d="M 637 114 L 650 114 L 650 424 L 637 424 L 637 114 Z Z" fill="none" stroke="#000000" stroke-miterlimit="10"/></g><g transform="translate(-246,-30) scale(1,1)"><path d="M 650 120 L 912 120" fill="none" stroke="#000000" stroke-miterlimit="10"/></g><g transform="translate(-246,-30) scale(1,1)"><path d="M 901.8373251423759 124.20951775601598 L 912 120 L 901.8373251423758 115.79048224398402" fill="#000000" stroke="none"/></g><g transform="translate(-246,-30) scale(1,1)"><path d="M 901.8373251423759 124.20951775601598 L 912 120 L 901.8373251423758 115.79048224398402 L 901.8373251423759 124.20951775601598" fill="none" stroke="#000000" stroke-miterlimit="10"/></g><g transform="translate(-246,-30) scale(1,1)"><g><path fill="none" stroke="none"/><text fill="#000000" font-family="Arial" font-size="13px" font-style="normal" font-weight="normal" stroke="none" text-decoration="none" x="706.5" y="116.5">2 : CreateUser(name, pw)</text></g></g><g transform="translate(-246,-30) scale(1,1)"><rect fill="#ffffff" height="304" stroke="none" width="13" x="912" y="120"/></g><g transform="translate(-246,-30) scale(1,1)"><path d="M 912 120 L 925 120 L 925 424 L 912 424 L 912 120 Z Z" fill="none" stroke="#000000" stroke-miterlimit="10"/></g><g transform="translate(-246,-30) scale(1,1)"><path d="M 912 203 L 650 203" fill="none" stroke="#000000" stroke-dasharray="3" stroke-miterlimit="10"/></g><g transform="translate(-246,-30) scale(1,1)"><path d="M 660.1626748576241 198.790482243984 L 650 203 L 660.1626748576241 207.209517756016" fill="none" stroke="#000000" stroke-miterlimit="10"/></g><g transform="translate(-246,-30) scale(1,1)"><g><path fill="none" stroke="none"/><text fill="#000000" font-family="Arial" font-size="13px" font-style="normal" font-weight="normal" stroke="none" text-decoration="none" x="747.5" y="219.5">3 : Created</text></g></g><g transform="translate(-246,-30) scale(1,1)"><path d="M 650 224 L 680 224 L 680 244 L 657 244" fill="none" stroke="#000000" stroke-miterlimit="10"/></g><g transform="translate(-246,-30) scale(1,1)"><path d="M 667.1626748576241 239.790482243984 L 657 244 L 667.1626748576241 248.209517756016" fill="#000000" stroke="none"/></g><g transform="translate(-246,-30) scale(1,1)"><path d="M 667.1626748576241 239.790482243984 L 657 244 L 667.1626748576241 248.209517756016 L 667.1626748576241 239.790482243984" fill="none" stroke="#000000" stroke-miterlimit="10"/></g><g transform="translate(-246,-30) scale(1,1)"><g><path fill="none" stroke="none"/><text fill="#000000" font-family="Arial" font-size="13px" font-style="normal" font-weight="normal" stroke="none" text-decoration="none" x="649.5" y="239.5">4 : session = CreateSession()</text></g></g><g transform="translate(-246,-30) scale(1,1)"><rect fill="#ffffff" height="28" stroke="none" width="13" x="644" y="244"/></g><g transform="translate(-246,-30) scale(1,1)"><path d="M 644 244 L 657 244 L 657 272 L 644 272 L 644 244 Z Z" fill="none" stroke="#000000" stroke-miterlimit="10"/></g><g transform="translate(-246,-30) scale(1,1)"><path d="M 637 298 L 380 298" fill="none" stroke="#000000" stroke-dasharray="3" stroke-miterlimit="10"/></g><g transform="translate(-246,-30) scale(1,1)"><path d="M 390.16267485762415 293.790482243984 L 380 298 L 390.16267485762415 302.209517756016" fill="none" stroke="#000000" stroke-miterlimit="10"/></g><g transform="translate(-246,-30) scale(1,1)"><g><path fill="none" stroke="none"/><text fill="#000000" font-family="Arial" font-size="13px" font-style="normal" font-weight="normal" stroke="none" text-decoration="none" x="444.5" y="314.5">5 : OK(session.token)</text></g></g><g transform="translate(-246,-30) scale(1,1)"><path d="M 912 360 L 650 360" fill="none" stroke="#000000" stroke-dasharray="3" stroke-miterlimit="10"/></g><g transform="translate(-246,-30) scale(1,1)"><path d="M 660.1626748576241 355.790482243984 L 650 360 L 660.1626748576241 364.209517756016" fill="none" stroke="#000000" stroke-miterlimit="10"/></g><g transform="translate(-246,-30) scale(1,1)"><g><path fill="none" stroke="none"/><text fill="#000000" font-family="Arial" font-size="13px" font-style="normal" font-weight="normal" stroke="none" text-decoration="none" x="733.5" y="376.5">6 : Exists/Invalid</text></g></g><g transform="translate(-246,-30) scale(1,1)"><path d="M 637 373 L 380 373" fill="none" stroke="#000000" stroke-dasharray="3" stroke-miterlimit="10"/></g><g transform="translate(-246,-30) scale(1,1)"><path d="M 390.16267485762415 368.790482243984 L 380 373 L 390.16267485762415 377.209517756016" fill="none" stroke="#000000" stroke-miterlimit="10"/></g><g transform="translate(-246,-30) scale(1,1)"><g><path fill="none" stroke="none"/><text fill="#000000" font-family="Arial" font-size="13px" font-style="normal" font-weight="normal" stroke="none" text-decoration="none" x="483.5" y="389.5">7 : NOK</text></g></g><g transform="translate(-246,-30) scale(1,1)"><path d="M 256 184 L 983 184 L 983 400 L 256 400 L 256 184" fill="none" stroke="#000000" stroke-miterlimit="10"/></g><g transform="translate(-246,-30) scale(1,1)"><path d="M 256 184 L 256 206 L 289.341796875 206 L 300.341796875 195 L 300.341796875 184 L 256 184" fill="#ffffff" stroke="none"/></g><g transform="translate(-246,-30) scale(1,1)"><path d="M 256 184 L 256 206 L 289.341796875 206 L 300.341796875 195 L 300.341796875 184 L 256 184 L 256 184" fill="none" stroke="#000000" stroke-miterlimit="10"/></g><g transform="translate(-246,-30) scale(1,1)"><g><path fill="none" stroke="none"/><text fill="#000000" font-family="Arial" font-size="13px" font-style="normal" font-weight="normal" stroke="none" text-decoration="none" x="280.72998046875" y="201.5"> </text></g></g><g transform="translate(-246,-30) scale(1,1)"><g><path fill="none" stroke="none"/><text fill="#000000" font-family="Arial" font-size="13px" font-style="normal" font-weight="bold" stroke="none" text-decoration="none" x="261" y="201.5">alt</text></g></g><g transform="translate(-246,-30) scale(1,1)"><g><path fill="none" stroke="none"/><text fill="#000000" font-family="Arial" font-size="13px" font-style="normal" font-weight="normal" stroke="none" text-decoration="none" x="275.5" y="234.5">[user created]</text></g></g><g transform="translate(-246,-30) scale(1,1)"><path d="M 256 329 L 983 329" fill="none" stroke="#000000" stroke-dasharray="10,3" stroke-miterlimit="10"/></g><g transform="translate(-246,-30) scale(1,1)"><g><path fill="none" stroke="none"/><text fill="#000000" font-family="Arial" font-size="13px" font-style="normal" font-weight="normal" stroke="none" text-decoration="none" x="275.5" y="356.5">[not created]</text></g></g></g></svg>